<svg xmlns="http://www.w3.org/2000/svg" width="55" height="55" viewBox="0 0 55 55"><g transform="translate(-749.632 -2873)"><g transform="translate(749.632 2873)"><circle cx="27.5" cy="27.5" r="27.5" fill="#f4b731"/></g><g transform="translate(763.116 2888.306)"><path d="M3.558,0H13.8c6.229,0,10.951,3.348,12.707,8.22H29.7v2.944H27.178a13.485,13.485,0,0,1,.074,1.421v.072a13.5,13.5,0,0,1-.094,1.6H29.7V17.2H26.445c-1.8,4.8-6.488,8.12-12.646,8.12H3.558V17.2H0V14.255H3.558V11.164H0V8.22H3.558ZM6.421,17.2v5.479H13.8c4.553,0,7.935-2.194,9.51-5.479Zm17.764-2.944H6.421V11.164H24.19a11.141,11.141,0,0,1,.1,1.493v.072a11.076,11.076,0,0,1-.1,1.525ZM13.8,2.637c4.573,0,7.966,2.252,9.531,5.583H6.421V2.637Z" fill="#fdfdfd" fill-rule="evenodd"/></g></g></svg>