<svg xmlns="http://www.w3.org/2000/svg" width="20.813" height="33.938" viewBox="0 0 20.813 33.938"><path d="M498.906.042l0-.042h.042a1.883,1.883,0,0,0,.233.422c.53.885,1.065,1.767,1.6,2.65q.74,1.227,1.478,2.455L503.6,7.76q.941,1.561,1.885,3.12.879,1.458,1.756,2.918l1.992,3.309a.547.547,0,0,1,.081.144,1.227,1.227,0,0,1-.361-.15c-.555-.248-1.108-.5-1.661-.751l-1.1-.5-1.641-.746-1.112-.5-1.641-.746-1.1-.5c-.443-.2-.885-.408-1.33-.606a2.363,2.363,0,0,0-.438-.182l-.005-.005c0-.035,0-.069,0-.1q0-6.151,0-12.3C498.923.115,498.937.075,498.906.042Z" transform="translate(-488.507)" fill="#62688f"/><path d="M0,607.4l.026-.019a.27.27,0,0,0,.071-.011c.343-.156.685-.313,1.028-.469l1.832-.833,1.6-.726,1.842-.837,1.6-.726c.655-.3,1.308-.6,1.964-.9a3.6,3.6,0,0,1,.457-.2l.005.005q0,5.428,0,10.856a.022.022,0,0,1-.033.015c-1-.62-2.014-1.2-3.022-1.8q-1.624-.964-3.251-1.924L.038,607.43A.165.165,0,0,0,0,607.418Z" transform="translate(0 -590.126)" fill="#62688f"/><path d="M498.927,931.881l2.894-1.707q1.046-.618,2.09-1.239l2.575-1.52,2.261-1.336c.182-.107.366-.21.548-.315l.008.009c-.157.227-.313.456-.473.681-.32.452-.644.9-.964,1.353q-.71,1-1.418,2l-1.574,2.219-1.655,2.327q-.652.919-1.3,1.839-.827,1.164-1.655,2.327-.635.893-1.267,1.788c-.022.031-.062.058-.051.107H498.9l0-.042c.034-.039.017-.087.017-.13q0-4.107,0-8.214C498.924,931.978,498.926,931.93,498.927,931.881Z" transform="translate(-488.507 -906.475)" fill="#62688f"/><path d="M499.914,613.789q0-5.428,0-10.856a2.367,2.367,0,0,1,.438.182c.445.2.887.4,1.33.606l1.1.5,1.641.746,1.112.5,1.641.746,1.1.5c.553.251,1.106.5,1.661.751a1.226,1.226,0,0,0,.361.15c.031.053-.022.057-.046.071q-.872.518-1.746,1.033l-3.011,1.781-2.425,1.43-3.065,1.813A.181.181,0,0,1,499.914,613.789Z" transform="translate(-489.497 -590.37)" fill="#454a75"/><path d="M12.205,931.841c0,.049,0,.1,0,.146q0,4.107,0,8.214c0,.043.017.091-.017.13-.17-.2-.309-.424-.462-.637q-.791-1.107-1.576-2.217l-1.063-1.5L7.394,933.6l-1.442-2.032-1.527-2.15L3.309,927.84,1.9,925.851c-.025-.035-.048-.072-.073-.108l.018-.019c.141.082.284.163.424.246l2.35,1.389,3.02,1.788q1.287.761,2.575,1.519l1.9,1.127C12.143,931.81,12.175,931.825,12.205,931.841Z" transform="translate(-1.786 -906.435)" fill="#8a91b1"/><path d="M997.7,925.17c0-.009.006-.016.018-.011l-.009.02Z" transform="translate(-976.911 -905.881)" fill="#62688f"/><path d="M11.611,14.545a3.6,3.6,0,0,0-.457.2c-.656.3-1.309.6-1.964.9l-1.6.726L5.753,17.2l-1.6.726-1.832.833L1.3,19.228a.271.271,0,0,1-.071.011c.111-.223.252-.428.379-.641q.726-1.211,1.455-2.42Q3.77,15,4.482,13.823q.7-1.156,1.391-2.313.742-1.231,1.486-2.462.662-1.1,1.322-2.2.683-1.134,1.369-2.266t1.381-2.3a1.541,1.541,0,0,1,.167-.26c.031.032.017.073.017.109q0,6.151,0,12.3C11.616,14.476,11.613,14.51,11.611,14.545Z" transform="translate(-1.2 -1.987)" fill="#8991b1"/></svg>