<svg xmlns="http://www.w3.org/2000/svg" width="238.074" height="58.267" viewBox="0 0 238.074 58.267"><g transform="translate(-110.793 -537.092)"><g transform="translate(227.383 537.092)"><rect width="36.138" height="5.698" rx="2.849" transform="matrix(0.726, -0.688, 0.688, 0.726, 4.736, 46.219)" fill="#b0005a"/><rect width="47.763" height="5.605" rx="2.802" transform="matrix(0.726, -0.688, 0.688, 0.726, 7.255, 32.869)" fill="#b0005a"/><rect width="35.712" height="5.243" rx="2.622" transform="matrix(0.726, -0.688, 0.688, 0.726, 0, 29.421)" fill="#b0005a"/></g><g transform="translate(110.793 551.594)"><path d="M110.793,595.413V553.29h25.535v8.948h-15.19v7.283h8.353l2.408,8.888H121.138v17.033Z" transform="translate(-110.793 -553.26)"/><path d="M140.913,553.286l9.482-.03v42.152l-9.482.119Z" transform="translate(-113.891 -553.257)"/><path d="M178.555,595.79q-.951.417-1.4.565a18.508,18.508,0,0,1-15.19-.892,16.892,16.892,0,0,1-6.421-5.826,15.709,15.709,0,0,1-1.011-14.833,16.152,16.152,0,0,1,3.835-5.173,16.621,16.621,0,0,1,5.588-3.359,18.283,18.283,0,0,1,6.6-1.219,18.85,18.85,0,0,1,6.6,1.19,16.648,16.648,0,0,1,5.589,3.388,16.246,16.246,0,0,1,3.864,5.173,15.17,15.17,0,0,1,1.4,6.48l-.03,15.487-9.424-.089Zm-14.833-18.341a7.085,7.085,0,0,0-1.1,3.835A7.292,7.292,0,0,0,165,586.724a8,8,0,0,0,11.148,0,7.294,7.294,0,0,0,2.377-5.439,7.085,7.085,0,0,0-1.1-3.835,8.131,8.131,0,0,0-2.943-2.794,8.064,8.064,0,0,0-7.819,0A8.131,8.131,0,0,0,163.722,577.449Z" transform="translate(-115.149 -554.47)"/><path d="M198.479,587.111a9.381,9.381,0,0,0,6.9,2.823q4.251,0,4.252-2.5,0-1.308-2.349-1.932-1.665-.386-5.291-1.339a10.473,10.473,0,0,1-4.965-2.853q-1.992-2.052-1.992-6.3a9.175,9.175,0,0,1,1.636-5.529,9.821,9.821,0,0,1,4.31-3.329,15.565,15.565,0,0,1,5.916-1.1,14.131,14.131,0,0,1,3.686.505A17.828,17.828,0,0,1,214.2,567.1a16.579,16.579,0,0,1,3.092,2.2l-5.232,5.2a8.13,8.13,0,0,0-4.993-1.724q-3.24,0-3.24,1.813,0,1.635,2.408,2.289,2.646.713,5.321,1.337a10.262,10.262,0,0,1,4.906,2.735q1.99,2.022,1.991,6.362a9.183,9.183,0,0,1-1.724,5.589,10.3,10.3,0,0,1-4.607,3.537,15.212,15.212,0,0,1-5.975,1.218,23.914,23.914,0,0,1-4.668-.416,14.323,14.323,0,0,1-3.894-1.308,24.662,24.662,0,0,1-3.924-2.467Z" transform="translate(-119.317 -554.47)"/><path d="M232.466,553.257v13.555a9.639,9.639,0,0,1,3.388-2.2,11.329,11.329,0,0,1,4.163-.8q11.444,0,11.444,13.406v18.252l-9.512.03V577.87a5.9,5.9,0,0,0-1.249-4.1,4.508,4.508,0,0,0-3.507-1.367,4.435,4.435,0,0,0-3.449,1.367,5.817,5.817,0,0,0-1.278,4.1v17.6l-9.512.059V553.286Z" transform="translate(-122.33 -553.257)"/></g><g transform="translate(247.044 550.764)"><path d="M294.929,588.292H277.751l-4.21,7.635H262.665l23.691-43.6,23.66,43.6H299.14Zm-4.362-7.938-4.211-7.634-4.242,7.634Z" transform="translate(-262.665 -552.331)"/><path d="M333.039,574.291a3.8,3.8,0,0,0-1.969-.575h-.545q-3.7.152-3.7,5.15v18.359h-9.695V578.867q0-13.239,13.391-13.906h.545a15.839,15.839,0,0,1,1.969.181Z" transform="translate(-268.268 -553.63)"/><path d="M336.551,552.8l9.665-.03v12.784l.7-.3.7-.3a19.632,19.632,0,0,1,13.42,0,17.6,17.6,0,0,1,5.726,3.484,16.216,16.216,0,0,1,3.908,5.3,16.116,16.116,0,0,1,.03,13.178,16.781,16.781,0,0,1-3.938,5.332,17.3,17.3,0,0,1-5.726,3.484,18.726,18.726,0,0,1-15.48-.939,16.867,16.867,0,0,1-6.544-5.937,15.13,15.13,0,0,1-2.455-8.332Zm12.088,33.083a8.083,8.083,0,0,0,11.361,0,7.471,7.471,0,0,0,2.424-5.575,7.073,7.073,0,0,0-1.121-3.878,8.281,8.281,0,0,0-3-2.847,8.007,8.007,0,0,0-7.967,0,8.278,8.278,0,0,0-3,2.847,7.065,7.065,0,0,0-1.121,3.878A7.47,7.47,0,0,0,348.639,585.884Z" transform="translate(-270.265 -552.376)"/></g></g></svg>