<svg xmlns="http://www.w3.org/2000/svg" viewBox="0 0 658.9917 164.97896"><defs><style>.cls-1{fill:#b0005a;}.cls-2{fill:#c590d7;}.cls-3{fill:#b20acb;}</style></defs><g id="Layer_2" data-name="Layer 2"><g id="Layer_1-2" data-name="Layer 1"><path class="cls-1" d="M358.97509,34.9812,281.186,108.764l.95761-10.58767.37841-10.7924L348.9327,24.39353a7.29637,7.29637,0,0,1,10.315.27264l0,0A7.29637,7.29637,0,0,1,358.97509,34.9812Z"/><rect class="cls-2" x="268.31714" y="107.65196" width="112.22257" height="15.10344" rx="7.55171" transform="translate(9.76106 254.88239) rotate(-43.48593)"/><rect class="cls-3" x="284.11033" y="46.71258" width="150.72931" height="14.97179" rx="7.48589" transform="translate(61.36216 262.25733) rotate(-43.48593)"/><path d="M0,122.18551V9.09517H68.55664V33.11812H27.77393V52.67135H50.2002L56.665,76.53463H27.77393v45.73095Z"/><path d="M72.54688,9.09517l25.45947-.07959V122.18551l-25.45947.31933Z"/><path d="M170.23389,119.95064q-2.55543,1.11915-3.751,1.5166a49.69985,49.69985,0,0,1-40.78271-2.394,45.33247,45.33247,0,0,1-17.23926-15.64306,42.17266,42.17266,0,0,1-2.71338-39.82471A43.39016,43.39016,0,0,1,116.043,49.71822a44.67722,44.67722,0,0,1,15.00439-9.01807,49.10747,49.10747,0,0,1,17.71778-3.27246,50.64636,50.64636,0,0,1,17.71777,3.19239,44.70938,44.70938,0,0,1,15.00391,9.09814A43.62426,43.62426,0,0,1,191.8623,63.60543a40.73978,40.73978,0,0,1,3.751,17.39844l-.08008,41.58056-25.29931-.23926Zm-39.8252-49.24218a19.0074,19.0074,0,0,0-2.95264,10.29541,19.58387,19.58387,0,0,0,6.38477,14.605,21.49171,21.49171,0,0,0,29.92822,0,19.5874,19.5874,0,0,0,6.38477-14.605,19.01569,19.01569,0,0,0-2.95264-10.29541A21.85063,21.85063,0,0,0,159.2998,63.206a21.65265,21.65265,0,0,0-20.98974,0A21.82734,21.82734,0,0,0,130.40869,70.70846Z"/><path d="M212.5332,96.64644a25.18333,25.18333,0,0,0,18.51563,7.582q11.4126,0,11.41308-6.70411,0-3.51123-6.30517-5.1875-4.47071-1.03637-14.20606-3.59131a28.149,28.149,0,0,1-13.32812-7.6621q-5.34814-5.50635-5.34717-16.91944a24.64277,24.64277,0,0,1,4.38916-14.84472,26.36326,26.36326,0,0,1,11.57275-8.93848,41.78836,41.78836,0,0,1,15.88184-2.95313,37.8906,37.8906,0,0,1,9.89648,1.35694,47.92551,47.92551,0,0,1,9.73682,4.1499,44.60263,44.60263,0,0,1,8.30029,5.90576l-14.04638,13.9668a21.82189,21.82189,0,0,0-13.40821-4.62891q-8.6997,0-8.69921,4.86865,0,4.39014,6.46435,6.145,7.103,1.91529,14.28613,3.5918a27.51943,27.51943,0,0,1,13.16846,7.34229q5.346,5.428,5.34717,17.0791a24.6582,24.6582,0,0,1-4.62891,15.00439,27.63129,27.63129,0,0,1-12.3706,9.49707A40.81494,40.81494,0,0,1,233.124,124.979a64.2023,64.2023,0,0,1-12.53027-1.11718,38.43418,38.43418,0,0,1-10.45508-3.51172,66.426,66.426,0,0,1-10.53467-6.62451Z"/><path d="M386.12254,105.68013a37.21836,37.21836,0,0,0-14.68506-10.61426q-8.37965-3.19116-16.36084-6.62451-7.82227-3.35155-7.82129-9.09814a7.6024,7.6024,0,0,1,3.59131-6.54443,12.33047,12.33047,0,0,1,7.34277-2.47413,19.791,19.791,0,0,1,9.25781,2.0752,39.577,39.577,0,0,1,8.69922,6.624l13.64746-19.47363a47.18705,47.18705,0,0,0-15.084-9.73682,46.4381,46.4381,0,0,0-17.23877-3.352,39.32772,39.32772,0,0,0-16.00958,3.3197q-7.44627-12.42728-25.49579-12.433a30.43143,30.43143,0,0,0-11.17334,2.15479A28.01405,28.01405,0,0,0,299.33335,42.37a2.32114,2.32114,0,0,1-3.639-1.91137V11.34993A2.327,2.327,0,0,0,293.36,9.02285l-20.88494.06506a2.32716,2.32716,0,0,0-2.31983,2.32709V120.16317a2.3271,2.3271,0,0,0,2.34168,2.327l20.88488-.13055a2.3271,2.3271,0,0,0,2.3125-2.327V75.0981q0-7.34253,3.43164-11.01416,3.35231-3.66943,9.25831-3.6709,6.06372,0,9.41748,3.6709,3.35156,3.67236,3.35205,11.01416v.74921a39.32723,39.32723,0,0,0-.395,5.5711q0,13.9673,6.06543,20.98975a37.90607,37.90607,0,0,0,14.605,10.61475l4.23,1.75586,4.15039,1.67578q4.62744,1.91527,8.14014,3.43213,7.90136,3.43212,7.90136,9.25781a8.23678,8.23678,0,0,1-4.23,7.502,17.043,17.043,0,0,1-9.01855,2.63379,22.92791,22.92791,0,0,1-18.91455-9.09814l-15.0044,21.38867a45.332,45.332,0,0,0,16.12158,10.05615,54.05028,54.05028,0,0,0,18.835,3.352q16.83839,0,27.69385-9.81689Q392.26755,145.426,392.268,127.229,392.268,113.02437,386.12254,105.68013Z"/><path d="M431.53418,141.67428h1.43652q9.73609-.31788,9.73682-13.4878V80.62008h25.53906v47.5664q0,34.71753-35.27588,36.63282h-1.43652q-35.27637-1.91529-35.27588-36.63282V80.62008h25.53906v47.5664Q421.79736,141.35543,431.53418,141.67428Z"/><path d="M519.564,102.40816H502.72412l5.74609-21.86767H519.564V49.09517l25.45948.15967V80.54049h16.91943l-5.6665,21.86767H545.02344v27.05567q0,10.85448,13.56738,10.854a16.9801,16.9801,0,0,0,6.7041-1.0376l-7.34277,25.3794a24.84013,24.84013,0,0,1-3.91065.31933q-11.41405,0-18.99462-3.67138a24.88448,24.88448,0,0,1-11.57227-11.09327q-3.91113-7.34179-3.91065-18.75537Z"/><path d="M655.40039,103.685a41.88639,41.88639,0,0,1,3.59131,17.23877v.71826a5.4139,5.4139,0,0,1-.08008.87793l-.15918,1.35693H648.856v.15967H593.94678a20.689,20.689,0,0,0,20.19189,17.6377,19.63265,19.63265,0,0,0,14.36572-6.06543l.15967-.15967.23926-.31885.23975-.23975.15918-.23925,13.72754,19.6333a47.73662,47.73662,0,0,1-11.97168,7.2622,45.95844,45.95844,0,0,1-16.91944,3.19288,44.843,44.843,0,0,1-22.10742-5.66651,43.44939,43.44939,0,0,1-16.52051-15.72265A43.36433,43.36433,0,0,1,572.877,103.685a43.02746,43.02746,0,0,1,9.89649-13.88672,43.83034,43.83034,0,0,1,14.36572-9.17822,46.57553,46.57553,0,0,1,16.99951-3.19239,45.95818,45.95818,0,0,1,16.91944,3.19239,44.27037,44.27037,0,0,1,14.4458,9.09814A41.71436,41.71436,0,0,1,655.40039,103.685Zm-41.26172-3.19238a19.82325,19.82325,0,0,0-10.05615,2.71337,23.66724,23.66724,0,0,0-5.58643,4.94825h31.28516a23.70532,23.70532,0,0,0-5.58643-4.94825A19.83106,19.83106,0,0,0,614.13867,100.49264Z"/><path d="M496.978,64.33883a13.759,13.759,0,0,1-4.78858,4.78857,13.26461,13.26461,0,0,1-13.32861.08008,13.5242,13.5242,0,0,1-4.78857-4.86865,13.38453,13.38453,0,0,1-1.83545-6.78369,13.14062,13.14062,0,0,1,1.75586-6.70411,14.21033,14.21033,0,0,1,4.86816-4.86816,12.71614,12.71614,0,0,1,6.62451-1.75586,13.15156,13.15156,0,0,1,6.7041,1.75586A13.57354,13.57354,0,0,1,496.978,50.851a13.83188,13.83188,0,0,1,0,13.4878Zm1.67578,16.36132v81.80469H473.19434V80.77974Z"/></g></g></svg>