<svg xmlns="http://www.w3.org/2000/svg" viewBox="0 0 261.88721 62.28949"><defs><style>.cls-1{fill:#b20acb;}.cls-2{fill:#f4e3ff;}</style></defs><g id="Layer_2" data-name="Layer 2"><g id="Layer_1-2" data-name="Layer 1"><rect class="cls-1" x="133.09162" y="35.49415" width="40.28102" height="6.35124" rx="3.17561" transform="translate(15.44395 116.06391) rotate(-43.48593)"/><path class="cls-1" d="M137.20923,16.16931H184.201a3.12357,3.12357,0,0,1,3.12357,3.12357v0a3.12358,3.12358,0,0,1-3.12358,3.12358H137.20923a3.12357,3.12357,0,0,1-3.12357-3.12357v0a3.12358,3.12358,0,0,1,3.12358-3.12358Z" transform="translate(30.82966 115.88851) rotate(-43.48593)"/><rect class="cls-1" x="127.70391" y="17.0023" width="39.80665" height="5.84459" rx="2.92229" transform="translate(26.80014 107.04825) rotate(-43.48593)"/><path class="cls-2" d="M0,60.30805V13.3559H28.46289v9.97363H11.53076V31.4477h9.311l2.68408,9.90722H11.53076V60.34125Z"/><path class="cls-2" d="M30.11963,13.3559l10.56982-.0332V60.30805l-10.56982.13281Z"/><path class="cls-2" d="M70.67627,59.38031q-1.06055.46436-1.55713.62989A20.63638,20.63638,0,0,1,52.187,59.01606a18.82213,18.82213,0,0,1-7.15674-6.49415,17.509,17.509,0,0,1-1.127-16.53418,18.00613,18.00613,0,0,1,4.27441-5.76562,18.54468,18.54468,0,0,1,6.2295-3.74414,20.37374,20.37374,0,0,1,7.356-1.35938,21.016,21.016,0,0,1,7.356,1.32618,18.55463,18.55463,0,0,1,6.22949,3.77734,18.09692,18.09692,0,0,1,4.30713,5.76562,16.90761,16.90761,0,0,1,1.55762,7.22266l-.0332,17.26367-10.50391-.09961ZM54.14209,38.936A7.89177,7.89177,0,0,0,52.916,43.21039a8.12943,8.12943,0,0,0,2.65087,6.06348,8.92239,8.92239,0,0,0,12.42579,0,8.1307,8.1307,0,0,0,2.65039-6.06348A7.89542,7.89542,0,0,0,69.41748,38.936a9.07582,9.07582,0,0,0-3.28027-3.11426,8.9875,8.9875,0,0,0-8.71485,0A9.06417,9.06417,0,0,0,54.14209,38.936Z"/><path class="cls-2" d="M88.23779,49.70551a10.45721,10.45721,0,0,0,7.6875,3.14746q4.738,0,4.73828-2.7832,0-1.45752-2.61767-2.1543-1.856-.42919-5.898-1.49121a11.67493,11.67493,0,0,1-5.53369-3.18067q-2.22-2.28661-2.21973-7.02441a10.22876,10.22876,0,0,1,1.82227-6.16309,10.94065,10.94065,0,0,1,4.80468-3.71093,17.34115,17.34115,0,0,1,6.59375-1.22657,15.74764,15.74764,0,0,1,4.1084.56348,19.89213,19.89213,0,0,1,4.04248,1.72363,18.49423,18.49423,0,0,1,3.44629,2.45118l-5.832,5.79882A9.06173,9.06173,0,0,0,97.814,33.73383q-3.6123,0-3.61181,2.02148,0,1.82227,2.68408,2.55176,2.94873.794,5.93115,1.49024a11.43035,11.43035,0,0,1,5.46729,3.04882q2.21923,2.2544,2.21972,7.09082a10.23608,10.23608,0,0,1-1.92187,6.2295,11.4775,11.4775,0,0,1-5.13574,3.94336,16.95147,16.95147,0,0,1-6.66016,1.35839,26.68079,26.68079,0,0,1-5.20215-.46386,15.98324,15.98324,0,0,1-4.34033-1.458,27.59624,27.59624,0,0,1-4.374-2.75Z"/><path class="cls-2" d="M122.76416,13.3227V28.43207a10.741,10.741,0,0,1,3.77734-2.45117,12.63,12.63,0,0,1,4.63916-.89453q12.75587,0,12.75684,14.94336V60.37445l-10.603.03321V40.75824a6.58325,6.58325,0,0,0-1.39209-4.57226,5.029,5.029,0,0,0-3.90967-1.52442A4.94469,4.94469,0,0,0,124.189,36.186a6.48453,6.48453,0,0,0-1.4248,4.57226V60.37445l-10.603.06641V13.3559Z"/><path class="cls-2" d="M157.10156,61.17523v-47.918h14.31787a38.709,38.709,0,0,1,8.17237.74218,16.15406,16.15406,0,0,1,5.94336,2.499,11.38667,11.38667,0,0,1,3.84961,4.76172,17.836,17.836,0,0,1,1.35058,7.32812,14.45058,14.45058,0,0,1-1.35058,6.34863,14.15658,14.15658,0,0,1-3.74854,4.79493,16.79737,16.79737,0,0,1-5.707,3.07324,22.35867,22.35867,0,0,1-6.92236,1.08008h-4.12012v17.29Zm11.78516-37.7539v10.2998h3.37695a8.05279,8.05279,0,0,0,4.99805-1.35058,4.5492,4.5492,0,0,0,1.72217-3.84961,4.47626,4.47626,0,0,0-1.72217-3.78223,8.20451,8.20451,0,0,0-4.99805-1.31738Z"/><path class="cls-2" d="M202.45312,59.85785a19.07531,19.07531,0,0,1-7.29394-6.65234,17.91039,17.91039,0,0,1-1.14844-16.88379,18.24006,18.24006,0,0,1,4.35645-5.91016,19.92878,19.92878,0,0,1,6.38232-3.88379,21.3872,21.3872,0,0,1,14.95947,0,19.1525,19.1525,0,0,1,6.38233,3.85059,18.44818,18.44818,0,0,1,4.35644,5.94336,18.0421,18.0421,0,0,1,.0337,14.72266,18.5856,18.5856,0,0,1-4.39014,5.97753,20.093,20.093,0,0,1-6.38233,3.88282,20.87847,20.87847,0,0,1-17.25586-1.04688Zm3.44434-9.96191a9.00845,9.00845,0,0,0,12.66358,0,8.32266,8.32266,0,0,0,2.70166-6.21289,8.04728,8.04728,0,0,0-1.24952-4.35645,9.23958,9.23958,0,0,0-3.34326-3.17383,8.92852,8.92852,0,0,0-8.88135,0,9.23056,9.23056,0,0,0-3.34277,3.17383,8.0389,8.0389,0,0,0-1.24951,4.35645A8.3204,8.3204,0,0,0,205.89746,49.89594Z"/><path class="cls-2" d="M239.19434,50.30121a10.65268,10.65268,0,0,0,7.83447,3.208q4.82813,0,4.82861-2.83594,0-1.48534-2.66748-2.19531-1.89185-.438-6.01123-1.51953a11.90877,11.90877,0,0,1-5.63916-3.24219q-2.26318-2.3291-2.26269-7.1582a10.42683,10.42683,0,0,1,1.85742-6.28125,11.15411,11.15411,0,0,1,4.89648-3.78223,17.6744,17.6744,0,0,1,6.72022-1.25,16.06382,16.06382,0,0,1,4.187.57422,20.29379,20.29379,0,0,1,4.12012,1.75586,18.85381,18.85381,0,0,1,3.51171,2.499l-5.94336,5.91016a9.22982,9.22982,0,0,0-5.67285-1.959q-3.68115,0-3.68115,2.05957,0,1.85889,2.73535,2.60059,3.00513.81006,6.04492,1.51953a11.6501,11.6501,0,0,1,5.57178,3.10645q2.26171,2.29688,2.2627,7.22656a10.43055,10.43055,0,0,1-1.959,6.34863,11.68951,11.68951,0,0,1-5.23388,4.01856,17.2735,17.2735,0,0,1-6.7876,1.38476,27.11906,27.11906,0,0,1-5.30176-.47265,16.28779,16.28779,0,0,1-4.42383-1.48536,28.13776,28.13776,0,0,1-4.45752-2.80371Z"/></g></g></svg>