<svg xmlns="http://www.w3.org/2000/svg" viewBox="0 0 265.36914 63.6551"><defs><style>.cls-1{fill:#b0005a;}.cls-2{fill:#f4e3ff;}</style></defs><g id="Layer_2" data-name="Layer 2"><g id="Layer_1-2" data-name="Layer 1"><path class="cls-1" d="M135.06864,35.49415h33.9298a3.17561,3.17561,0,0,1,3.17561,3.17561v0a3.17562,3.17562,0,0,1-3.17562,3.17562H135.06864a3.17561,3.17561,0,0,1-3.17561-3.17561v0A3.17561,3.17561,0,0,1,135.06864,35.49415Z" transform="translate(15.11498 115.23906) rotate(-43.48593)"/><path class="cls-1" d="M136.01063,16.16931h46.99173a3.12357,3.12357,0,0,1,3.12357,3.12357v0a3.12358,3.12358,0,0,1-3.12358,3.12358H136.01063a3.12357,3.12357,0,0,1-3.12357-3.12357v0a3.12358,3.12358,0,0,1,3.12358-3.12358Z" transform="translate(30.5007 115.06366) rotate(-43.48593)"/><rect class="cls-1" x="126.50532" y="17.0023" width="39.80665" height="5.84459" rx="2.92229" transform="translate(26.47118 106.2234) rotate(-43.48593)"/><path class="cls-2" d="M0,61.85822V14.90608H28.46289v9.97363H11.53076v8.11816h9.311l2.68408,9.90723H11.53076V61.89143Z"/><path class="cls-2" d="M30.11963,14.90608l10.56982-.03321V61.85822L30.11963,61.991Z"/><path class="cls-2" d="M70.67627,60.93049q-1.06055.46436-1.55713.62988A20.63627,20.63627,0,0,1,52.187,60.56623a18.822,18.822,0,0,1-7.15674-6.49414,17.509,17.509,0,0,1-1.127-16.53418,18.006,18.006,0,0,1,4.27441-5.76562,18.54452,18.54452,0,0,1,6.2295-3.74414,20.37374,20.37374,0,0,1,7.356-1.35938,21.016,21.016,0,0,1,7.356,1.32617,18.55465,18.55465,0,0,1,6.22949,3.77735,18.09681,18.09681,0,0,1,4.30713,5.76562,16.90758,16.90758,0,0,1,1.55762,7.22266l-.0332,17.26367-10.50391-.09961ZM54.14209,40.48615A7.89183,7.89183,0,0,0,52.916,44.76057a8.12943,8.12943,0,0,0,2.65087,6.06348,8.92239,8.92239,0,0,0,12.42579,0,8.1307,8.1307,0,0,0,2.65039-6.06348,7.89548,7.89548,0,0,0-1.22559-4.27442,9.0758,9.0758,0,0,0-3.28027-3.11425,8.98743,8.98743,0,0,0-8.71485,0A9.06414,9.06414,0,0,0,54.14209,40.48615Z"/><path class="cls-2" d="M88.23779,51.25569a10.45721,10.45721,0,0,0,7.6875,3.14746q4.738,0,4.73828-2.78321,0-1.45752-2.61767-2.15429-1.856-.42921-5.898-1.49121a11.675,11.675,0,0,1-5.53369-3.18067q-2.22-2.28662-2.21973-7.02441a10.22874,10.22874,0,0,1,1.82227-6.16309,10.94074,10.94074,0,0,1,4.80468-3.71094,17.34134,17.34134,0,0,1,6.59375-1.22656,15.74764,15.74764,0,0,1,4.1084.56348,19.89213,19.89213,0,0,1,4.04248,1.72363,18.49466,18.49466,0,0,1,3.44629,2.45117l-5.832,5.79883A9.06173,9.06173,0,0,0,97.814,35.284q-3.6123,0-3.61181,2.02148,0,1.82226,2.68408,2.55176,2.94873.794,5.93115,1.49023a11.43044,11.43044,0,0,1,5.46729,3.04883q2.21923,2.2544,2.21972,7.09082a10.236,10.236,0,0,1-1.92187,6.22949A11.47736,11.47736,0,0,1,103.44678,61.66a16.9513,16.9513,0,0,1-6.66016,1.3584,26.68,26.68,0,0,1-5.20215-.46387,15.98288,15.98288,0,0,1-4.34033-1.458,27.597,27.597,0,0,1-4.374-2.75Z"/><path class="cls-2" d="M122.76416,14.87287V29.98225a10.741,10.741,0,0,1,3.77734-2.45117,12.63,12.63,0,0,1,4.63916-.89453q12.75587,0,12.75684,14.94335V61.92463l-10.603.0332V42.30842a6.58329,6.58329,0,0,0-1.39209-4.57227,5.029,5.029,0,0,0-3.90967-1.52441,4.94472,4.94472,0,0,0-3.84375,1.52441,6.48457,6.48457,0,0,0-1.4248,4.57227V61.92463l-10.603.06641v-47.085Z"/><path class="cls-2" d="M187.83545,54.03108h-19.147l-4.69385,8.50976H151.87158l26.40723-48.59375,26.37353,48.59375h-12.123Zm-4.86279-8.84766-4.69385-8.50977-4.72754,8.50977Z"/><path class="cls-2" d="M224.06934,36.97737a4.23405,4.23405,0,0,0-2.19483-.64161h-.60791q-4.11987.16994-4.11963,5.74121V62.54084H206.34082V42.077q0-14.75684,14.92578-15.5h.60791a17.71272,17.71272,0,0,1,2.19483.20215Z"/><path class="cls-2" d="M225.7583,14.41975l10.77246-.0332v14.25l.77637-.3379.77685-.33691a21.8926,21.8926,0,0,1,14.95948,0,19.61883,19.61883,0,0,1,6.38232,3.88281,18.081,18.081,0,0,1,4.35645,5.91016,17.96391,17.96391,0,0,1,.03369,14.68945,18.70938,18.70938,0,0,1-4.39014,5.94336,19.29685,19.29685,0,0,1-6.38232,3.88281,20.87841,20.87841,0,0,1-17.25586-1.04687,18.8174,18.8174,0,0,1-7.29395-6.61816,16.87235,16.87235,0,0,1-2.73535-9.28711Zm13.47363,36.876a9.00842,9.00842,0,0,0,12.66358,0,8.32625,8.32625,0,0,0,2.70166-6.21386,7.88122,7.88122,0,0,0-1.24951-4.32227,9.23969,9.23969,0,0,0-3.34327-3.17383,8.9285,8.9285,0,0,0-8.88134,0,9.23051,9.23051,0,0,0-3.34278,3.17383,7.87318,7.87318,0,0,0-1.24951,4.32227A8.324,8.324,0,0,0,239.23193,51.29572Z"/></g></g></svg>