<svg xmlns="http://www.w3.org/2000/svg" width="30" height="40" viewBox="0 0 30 40"><rect width="30" height="40" fill="none"/><g transform="translate(-1198 -581)"><path d="M4.316-8.19a.867.867,0,0,1-.637-.189A.656.656,0,0,1,3.5-8.853v-.208a.656.656,0,0,1,.182-.474.867.867,0,0,1,.637-.189.867.867,0,0,1,.637.189.656.656,0,0,1,.182.474v.208a.656.656,0,0,1-.182.474A.867.867,0,0,1,4.316-8.19ZM1.378-.884H3.8v-4.94H1.378v-.884H4.836V-.884H7.1V0H1.378Z" transform="translate(1209.143 605)" fill="#232223"/><g transform="translate(1203 591)" fill="none" stroke="#242424" stroke-width="1"><circle cx="10" cy="10" r="10" stroke="none"/><circle cx="10" cy="10" r="9.5" fill="none"/></g></g></svg>