<svg xmlns="http://www.w3.org/2000/svg" width="25" height="25" viewBox="0 0 25 25"><g transform="translate(-503.998 -794.018)"><rect width="2" height="4" transform="translate(515.498 794.018)" fill="#b216cb"/><rect width="2" height="4" transform="translate(509.386 796.126) rotate(-29.995)" fill="#b216cb"/><rect width="2.001" height="3.999" transform="matrix(0.5, -0.866, 0.866, 0.5, 505.106, 801.138)" fill="#b216cb"/><rect width="4" height="2" transform="translate(503.998 805.518)" fill="#b216cb"/><rect width="4" height="2" transform="matrix(0.866, -0.5, 0.5, 0.866, 505.105, 811.897)" fill="#b216cb"/><rect width="4" height="2" transform="translate(509.385 816.909) rotate(-59.998)" fill="#b216cb"/><rect width="2" height="4" transform="translate(515.497 815.018)" fill="#b216cb"/><rect width="2" height="3.999" transform="matrix(0.866, -0.501, 0.501, 0.866, 519.878, 814.448)" fill="#b216cb"/><rect width="2" height="4" transform="translate(523.426 811.632) rotate(-60.029)" fill="#b216cb"/><rect width="4" height="2" transform="translate(524.998 805.518)" fill="#b216cb"/><rect width="4" height="2" transform="translate(523.426 801.408) rotate(-30.04)" fill="#b216cb"/><rect width="3.999" height="2" transform="matrix(0.5, -0.866, 0.866, 0.5, 519.88, 798.591)" fill="#b216cb"/></g></svg>